<svg width="270" height="40" viewBox="0 0 270 40" fill="none" xmlns="http://www.w3.org/2000/svg">
<rect width="270" height="40" fill="white"/>
<path d="M50.8 27.8586H48V12.5586H50.8V19.0786H57.62V12.5586H60.42V27.8586H57.62V21.2986H50.8V27.8586Z" fill="black"/>
<path d="M176.6 27.86H173.94V19.12H172.28V17.2H173.94V15.44C173.94 12.84 175.38 12 177.58 12C178.26 12 178.8 12.08 179 12.12V14.08C178.88 14.06 178.54 14 178.06 14C177.1 14 176.6 14.4 176.6 15.62V17.2H178.84V19.12H176.6V27.86Z" fill="black"/>
<path d="M210.52 20.2998C210.52 24.2998 212.06 26.0998 214.64 26.0998C217.02 26.0998 218.42 24.6798 218.52 22.2198L218.54 21.9598H214.64V19.8598H221.16V27.8598H218.9V25.7398H218.84C218.1 27.0998 216.6 28.1798 214.26 28.1798C210.08 28.1798 207.56 25.3398 207.56 20.3798C207.56 15.3998 210.5 12.3398 214.72 12.3398C218.2 12.3398 220.44 14.0198 220.8 16.9798H217.96C217.74 15.4198 216.46 14.3998 214.72 14.3998C212 14.3998 210.52 16.5598 210.52 20.2998Z" fill="black"/>
</svg>
